<svg xmlns="http://www.w3.org/2000/svg" viewBox="0 0 437.56 500"><defs><style>.cls-1,.cls-14,.cls-15{fill:#d6d8e5;}.cls-1{opacity:0.2;}.cls-2{fill:#38226d;}.cls-3{fill:#9c73ff;}.cls-4{fill:#8c50ff;}.cls-5{fill:#2b303f;}.cls-6{fill:#ffcea9;}.cls-7{fill:#f4f4f4;}.cls-8{fill:#d3c4a9;}.cls-9{fill:#efe3ca;}.cls-10{fill:#3a2c6d;}.cls-11{fill:#ededed;}.cls-12{fill:#bfbfbf;}.cls-13{fill:#e5e5e5;}.cls-14{opacity:0.4;}.cls-16{fill:#e4e6ef;}.cls-17{fill:#28221c;}.cls-18{fill:#99b524;}.cls-19{fill:#a6ce28;}.cls-20,.cls-30{fill:#fff;}.cls-20{opacity:0.07;}.cls-21{fill:#b0b4c1;}.cls-22{fill:#bfc2d1;}.cls-23{fill:#db302c;}.cls-24{fill:#f44336;}.cls-25{fill:#fafafa;}.cls-26{fill:#499bce;}.cls-27{fill:#55acee;}.cls-28{fill:#f1f2f2;}.cls-29{fill:#384b7a;}.cls-31{fill:#475993;}.cls-32{fill:#8e2fea;}.cls-33{fill:#a93bff;}</style></defs><title>Social_media_adv_SVG</title><g id="Слой_2" data-name="Слой 2"><g id="Слой_1-2" data-name="Слой 1"><g id="Men_12"><polygon class="cls-1" points="238.8 500 2.75 363.89 134.7 288.77 370.75 424.88 238.8 500"/><path class="cls-2" d="M203.08,379.1c-3.51,2.86-8.7.24-9,.51-3.58,3.58-9,7.67-13,10.79-2.19,1.73-5.61,4-5,7.35,1.11,5.92,10.59,4.1,14.17,2.29s6.49-4.82,9.88-6.92c2.41-1.5,4.79-2.28,5.16-5.33C205.6,386,203.7,379,203.08,379.1Z"/><path class="cls-3" d="M205.33,386.56c-.47,2.92-2.81,3.73-5.21,5.22-3.44,2.13-6.47,5.22-10,7-3.31,1.67-11.55,3.33-13.87-.9,1.26,5.71,10.57,3.92,14.12,2.13s6.49-4.82,9.88-6.92c2.41-1.5,4.79-2.28,5.16-5.33A5.36,5.36,0,0,0,205.33,386.56Z"/><path class="cls-2" d="M167.43,358.57c-3.51,2.86-9.66-.27-9.92,0A136.58,136.58,0,0,1,145.92,369c-2.19,1.72-5.6,4-5,7.34,1.1,5.92,10.58,4.1,14.16,2.29s6.5-4.82,9.88-6.92c2.42-1.5,4.79-2.28,5.17-5.32C170.37,364.57,168.06,358.49,167.43,358.57Z"/><path class="cls-3" d="M170,365.6c-.46,2.92-2.81,3.73-5.2,5.22-3.44,2.13-6.47,5.22-10.05,7-3.3,1.67-11.55,3.33-13.87-.9,1.27,5.71,10.58,3.92,14.12,2.13s6.5-4.82,9.88-6.92c2.42-1.5,4.79-2.28,5.17-5.33A6.14,6.14,0,0,0,170,365.6Z"/><path id="_Контур_" data-name="&lt;Контур&gt;" class="cls-4" d="M250.07,266.46c3.89,24.33-6.92,33.41-21,38.59-10.08,3.71-24.54,9.43-24.54,9.43s.2,5.34.31,17.33c.1,10.55-1.29,49.08-1.29,49.08s-5.82,3-10.76-.12c0,0-5.66-29.52-6.87-42.83-1.63-18.05-4.4-29.87-3.47-33.75.81-3.42,20.54-13.13,26.8-18.32l-41.34,13.85a73.15,73.15,0,0,1,1.2,13.6c-.38,14.32-1.17,45.33-1.17,45.33s-5.67,4.09-10.51.08c0,0-10.4-61.39-9.14-69.52,1.2-7.71,37.63-23.47,44.05-28.9a10.29,10.29,0,0,1,8.09-2.18Z"/><path class="cls-5" d="M234.24,178.79l24.05,11.77s13.06,4.65,9.4,26.72c-2.66,16-6.22,48.08-6.22,48.08l-45.22-4.58Z"/><path id="_Контур_2" data-name="&lt;Контур&gt;" class="cls-6" d="M235.68,174.86s-.6,11.59-.34,12.62,5.32,4.42,6.79,5.64-8,10.57-12.62,12.69-19.23-3.47-19.49-10.64,2.5-13.21,4.75-13.53S235.68,174.86,235.68,174.86Z"/><path class="cls-6" d="M193.59,201.62l-8.33,13.88L174.16,228l8.33,5.55,11.1-9.72S211.16,203,210,201.62,193.59,201.62,193.59,201.62Z"/><path id="_Контур_3" data-name="&lt;Контур&gt;" class="cls-7" d="M237,189.48s-8.41,12.52-20.14,13.7c-3.7-3.64-4-16.62,1.08-20.77,0,0-4.7-3.79-7.92-3.06a16.63,16.63,0,0,0-7.24,9.25,75.52,75.52,0,0,0-4.14,26.82c.2,12.3,0,43.38,0,43.38s1.75,11.88,12.36,17.79a38.17,38.17,0,0,0,27.84,3.84c5.94-1.38,8.16-4.71,10.2-9-.53-8.62-3.94-26.36-2.5-37.19s3.72-18.93,4.31-27.69-1.15-8.58-5.54-11.71A67.79,67.79,0,0,0,237,189.48Z"/><ellipse class="cls-5" cx="231.7" cy="482.9" rx="5.55" ry="3.21"/><rect class="cls-5" x="226.15" y="373.65" width="11.11" height="108.92"/><ellipse class="cls-5" cx="27.21" cy="360.93" rx="5.55" ry="3.21"/><rect class="cls-5" x="21.66" y="251.67" width="11.11" height="108.92"/><ellipse class="cls-5" cx="346.02" cy="418.34" rx="5.55" ry="3.21"/><rect class="cls-5" x="340.47" y="317.42" width="11.11" height="100.59"/><path class="cls-8" d="M359.74,329,121.49,191.48,8.76,256.56l-6-3.47V260L247,401.06l118.74-68.55v-6.94Z"/><polygon class="cls-9" points="247.02 394.12 2.75 253.09 121.49 184.54 365.76 325.57 247.02 394.12"/><path id="_Контур_4" data-name="&lt;Контур&gt;" class="cls-6" d="M223.49,289.34c2.06-1,3.56-2.56,6.58-3.78a13.69,13.69,0,0,0,5.64-3.41c2.06-2,5.44-9.66,7.85-17.1,2.85-8.79,3.34-20.73,2.84-25.88-1-10.44-4.79-25.06-5.74-31.07s1-8.4,3.78-10.62c3.28-2.6,7.81-1.45,10.24,7a162.09,162.09,0,0,1,5.39,35.68A81.31,81.31,0,0,1,256,266.5c-2.53,7.9-5.83,13.58-10.05,20.72-1.16,1.94-1.53,3.67-3.29,7.63S237.9,303,235,305.09s-4.34,2.41-5,2c-.87-.51-.69-1.45.54-2.57a22,22,0,0,0,5.26-5.89s-2.58,2.59-4.26,4a22.2,22.2,0,0,1-4.92,3.14c-1.73.76-4.12-.7-2.9-1.86s2.47-1.73,4.93-3.86a21.74,21.74,0,0,0,3.49-3.79,41.59,41.59,0,0,1-5.46,3.53c-2.68,1.37-4.07,1.39-5,1.35s-2-1.31-.31-2.55c1.53-1.11,3.93-1.86,6.52-4.44,1.88-1.87,2.95-3.46,2.42-3.49s-1.56,1.14-3.77,1.84-4.57.06-4.85-1.15S221.43,290.36,223.49,289.34Z"/><path id="_Контур_5" data-name="&lt;Контур&gt;" class="cls-6" d="M209.45,157.59h0c1.38-9,7.86-15.82,17.14-15.3a17.84,17.84,0,0,1,9.09,32.57,17.89,17.89,0,0,1-1.44,3.93c-3.28,3.84-13.2,6.21-16.05,5.8-3.66-.52-5.65-2.05-7.39-6.05C207.72,171.48,208.69,162,209.45,157.59Z"/><path class="cls-10" d="M235.68,174.86h0l-.85-7.85s6.41-16.6-8.74-13.41c-10,2.1-12.51,3-15.56-3.7s7.69-12.74,20.44-11.07a17.6,17.6,0,0,1,15.76,17.87C246.4,161.64,245.08,171.63,235.68,174.86Z"/><path class="cls-11" d="M261.61,219.91s-8.27,8.22-18.05,5.85c-1.4-.95-4.76-20.17-4.76-20.17s0-10.65,8.17-10.37S261.61,219.91,261.61,219.91Z"/><g id="_Группа_" data-name="&lt;Группа&gt;"><g id="_Группа_2" data-name="&lt;Группа&gt;"><path id="_Контур_6" data-name="&lt;Контур&gt;" class="cls-7" d="M131.44,266.9,164.27,248a1.88,1.88,0,0,1,1.89,0l57.59,33.25L190,300.7Z"/><path class="cls-5" d="M191.51,293.73l2.5,1.44c.2.12.18.33-.06.46L191.56,297a.85.85,0,0,1-.79,0l-2.51-1.44c-.2-.12-.17-.32.06-.46l2.39-1.38A.9.9,0,0,1,191.51,293.73Z"/><path class="cls-5" d="M188,291.68l2.51,1.45c.2.12.18.32-.06.46L188,295a.9.9,0,0,1-.8,0l-2.5-1.45c-.2-.11-.18-.32.06-.46l2.39-1.37A.89.89,0,0,1,188,291.68Z"/><path class="cls-5" d="M184.38,289.61l2.5,1.45c.21.12.18.32,0,.46l-2.39,1.38a.9.9,0,0,1-.8,0l-2.5-1.44c-.21-.12-.18-.33.06-.46l2.38-1.38A.91.91,0,0,1,184.38,289.61Z"/><path class="cls-5" d="M180.88,287.59l2.5,1.45c.21.12.18.32-.06.46l-2.38,1.38a.91.91,0,0,1-.8,0l-2.5-1.45c-.21-.11-.18-.32.05-.46l2.39-1.37A.88.88,0,0,1,180.88,287.59Z"/><path class="cls-5" d="M177.34,285.55l2.5,1.44c.2.12.18.33-.06.46l-2.39,1.38a.85.85,0,0,1-.79,0l-2.51-1.44c-.2-.12-.17-.33.06-.46l2.39-1.38A.87.87,0,0,1,177.34,285.55Z"/><path class="cls-5" d="M173.79,283.5,176.3,285c.2.11.17.32-.06.46l-2.39,1.38a.9.9,0,0,1-.8,0l-2.5-1.45c-.2-.11-.18-.32.06-.46l2.39-1.38A.88.88,0,0,1,173.79,283.5Z"/><path class="cls-5" d="M170.25,281.46l2.5,1.44c.21.12.18.32-.05.46l-2.39,1.38a.87.87,0,0,1-.8,0l-2.5-1.44c-.21-.12-.18-.33.06-.46l2.38-1.38A.87.87,0,0,1,170.25,281.46Z"/><path class="cls-5" d="M166.71,279.41l2.5,1.45c.2.11.18.32-.06.46l-2.38,1.37a.88.88,0,0,1-.8,0l-2.5-1.45c-.21-.12-.18-.32.05-.46l2.39-1.38A.9.9,0,0,1,166.71,279.41Z"/><path class="cls-5" d="M163.17,277.37l2.5,1.44c.2.12.18.32-.06.46l-2.39,1.38a.85.85,0,0,1-.79,0l-2.51-1.44c-.2-.12-.17-.33.06-.46l2.39-1.38A.87.87,0,0,1,163.17,277.37Z"/><path class="cls-5" d="M159.62,275.32l2.51,1.45c.2.11.17.32-.06.45l-2.39,1.38a.91.91,0,0,1-.8,0l-2.5-1.45c-.2-.12-.18-.32.06-.46l2.39-1.38A.88.88,0,0,1,159.62,275.32Z"/><path class="cls-5" d="M156.08,273.27l2.5,1.45c.21.12.18.32-.05.46l-2.39,1.38a.9.9,0,0,1-.8,0l-2.5-1.44c-.21-.12-.18-.33.06-.46l2.38-1.38A.91.91,0,0,1,156.08,273.27Z"/><path class="cls-5" d="M152.54,271.23l2.5,1.44c.2.12.18.33-.06.46l-2.39,1.38a.89.89,0,0,1-.79,0l-2.5-1.45c-.21-.12-.18-.32,0-.46l2.39-1.38A.9.9,0,0,1,152.54,271.23Z"/><path class="cls-5" d="M149,269.18l2.51,1.45c.2.12.18.32-.06.46l-2.39,1.38a.88.88,0,0,1-.79,0l-2.51-1.44c-.2-.12-.18-.33.06-.46l2.39-1.38A.89.89,0,0,1,149,269.18Z"/><path class="cls-5" d="M143.75,266.15l4.2,2.43c.21.12.18.33,0,.46l-2.39,1.38a.91.91,0,0,1-.8,0L140.5,268c-.2-.12-.17-.33.06-.46l2.39-1.38A.91.91,0,0,1,143.75,266.15Z"/><path class="cls-5" d="M189.69,288.71l2.5,1.45c.2.11.18.32-.06.46L189.74,292a.88.88,0,0,1-.79,0l-2.51-1.45c-.2-.11-.17-.32.06-.46l2.39-1.38A.9.9,0,0,1,189.69,288.71Z"/><path class="cls-5" d="M186.14,286.66l2.5,1.45c.2.12.18.32-.06.46L186.19,290a.88.88,0,0,1-.79,0l-2.51-1.45c-.2-.11-.17-.32.06-.46l2.39-1.37A.91.91,0,0,1,186.14,286.66Z"/><path class="cls-5" d="M182.59,284.61l2.5,1.45c.2.12.18.32-.06.46l-2.38,1.38a.91.91,0,0,1-.8,0l-2.5-1.44c-.21-.12-.18-.33.05-.46l2.39-1.38A.91.91,0,0,1,182.59,284.61Z"/><path class="cls-5" d="M179,282.57l2.5,1.44c.21.12.18.32-.06.46l-2.38,1.38a.91.91,0,0,1-.8,0l-2.5-1.44c-.21-.12-.18-.33,0-.46l2.39-1.38A.87.87,0,0,1,179,282.57Z"/><path class="cls-5" d="M175.52,280.53,178,282c.21.12.18.32-.06.46l-2.38,1.38a.91.91,0,0,1-.8,0l-2.5-1.45c-.21-.11-.18-.32.05-.46l2.39-1.37A.88.88,0,0,1,175.52,280.53Z"/><path class="cls-5" d="M172,278.48l2.5,1.45c.21.12.18.32-.05.46L172,281.77a.91.91,0,0,1-.8,0l-2.5-1.44c-.21-.12-.18-.33.06-.46l2.38-1.38A.91.91,0,0,1,172,278.48Z"/><path class="cls-5" d="M168.42,276.44l2.5,1.44c.21.12.18.32,0,.46l-2.39,1.38a.9.9,0,0,1-.8,0l-2.5-1.44c-.2-.12-.18-.33.06-.46l2.38-1.38A.87.87,0,0,1,168.42,276.44Z"/><path class="cls-5" d="M164.87,274.39l2.51,1.44c.2.12.17.32-.06.46l-2.39,1.38a.87.87,0,0,1-.8,0l-2.5-1.44c-.2-.12-.18-.33.06-.46l2.39-1.38A.85.85,0,0,1,164.87,274.39Z"/><path class="cls-5" d="M161.32,272.34l2.51,1.44c.2.12.17.33-.06.46l-2.39,1.38a.87.87,0,0,1-.8,0l-2.5-1.44c-.2-.12-.18-.32.06-.46l2.39-1.38A.85.85,0,0,1,161.32,272.34Z"/><path class="cls-5" d="M157.78,270.29l2.5,1.44c.2.12.18.33-.06.46l-2.39,1.38a.85.85,0,0,1-.79,0l-2.51-1.44c-.2-.12-.18-.32.06-.46l2.39-1.38A.9.9,0,0,1,157.78,270.29Z"/><path class="cls-5" d="M154.23,268.24l2.5,1.44c.2.12.18.33-.06.46l-2.39,1.38a.89.89,0,0,1-.79,0L151,270.11c-.2-.12-.17-.32.06-.46l2.39-1.38A.9.9,0,0,1,154.23,268.24Z"/><path class="cls-5" d="M150.68,266.19l2.5,1.45c.2.11.18.32-.06.46l-2.39,1.37a.86.86,0,0,1-.79,0l-2.5-1.45c-.21-.12-.18-.32.05-.46l2.39-1.38A.9.9,0,0,1,150.68,266.19Z"/><path class="cls-5" d="M193.23,290.76l4.21,2.43c.21.12.18.32-.05.46L195,295a.87.87,0,0,1-.8,0L190,292.63c-.2-.12-.18-.32.06-.46l2.39-1.38A.88.88,0,0,1,193.23,290.76Z"/><path class="cls-5" d="M143.92,266l2.5,1.45a.84.84,0,0,0,.74,0l2.53-1.46a.23.23,0,0,0,0-.43l-.2-.12c-.19-.1-.19-.28,0-.39l2.67-1.54c.21-.12.21-.31,0-.43l-1.59-.92a.81.81,0,0,0-.74,0l-2.5,1.44-.51.3-.38.22-.37.21-2.15,1.24C143.71,265.71,143.71,265.9,143.92,266Z"/><path class="cls-5" d="M205.23,285.79l2.5,1.45c.2.11.18.32-.06.46l-2.39,1.37a.89.89,0,0,1-.79,0l-2.5-1.45c-.21-.12-.18-.32,0-.46l2.39-1.38A.9.9,0,0,1,205.23,285.79Z"/><path class="cls-5" d="M201.69,283.75l2.51,1.45c.2.11.18.32-.06.46L201.75,287a.86.86,0,0,1-.79,0l-2.51-1.45c-.2-.12-.18-.32.06-.46l2.39-1.38A.88.88,0,0,1,201.69,283.75Z"/><path class="cls-5" d="M198.16,281.71l2.5,1.45c.21.11.18.32,0,.46L198.22,285a.88.88,0,0,1-.8,0l-2.5-1.45c-.2-.11-.18-.32.06-.46l2.39-1.38A.88.88,0,0,1,198.16,281.71Z"/><path class="cls-5" d="M168.08,264.34l2.5,1.45c.21.12.18.32-.06.46l-2.38,1.38a.91.91,0,0,1-.8,0l-2.5-1.45c-.21-.11-.18-.32,0-.46l2.39-1.37A.88.88,0,0,1,168.08,264.34Z"/><path class="cls-5" d="M164.55,262.3l2.5,1.45c.2.12.18.32-.06.46l-2.39,1.38a.88.88,0,0,1-.79,0l-2.51-1.45c-.2-.11-.17-.32.06-.46l2.39-1.37A.91.91,0,0,1,164.55,262.3Z"/><path class="cls-5" d="M161,260.26l2.51,1.45c.2.12.17.32-.06.46l-2.39,1.38a.9.9,0,0,1-.8,0l-2.5-1.44c-.2-.12-.18-.33.06-.46l2.39-1.38A.89.89,0,0,1,161,260.26Z"/><path class="cls-5" d="M157.48,258.22l2.5,1.45c.21.12.18.32,0,.46l-2.39,1.38a.9.9,0,0,1-.8,0l-2.5-1.44c-.21-.12-.18-.33.06-.46l2.38-1.38A.91.91,0,0,1,157.48,258.22Z"/><path class="cls-5" d="M193.72,279.15l3.41,2c.21.11.18.32-.06.46L194.69,283a.91.91,0,0,1-.8,0l-3.41-2c-.21-.12-.18-.33.06-.46l2.38-1.38A.87.87,0,0,1,193.72,279.15Z"/><path class="cls-5" d="M171.61,266.38l3.41,2c.21.12.18.33-.05.46l-2.39,1.38a.87.87,0,0,1-.8,0l-3.41-2c-.2-.11-.18-.32.06-.46l2.38-1.37A.88.88,0,0,1,171.61,266.38Z"/><path class="cls-5" d="M176.05,269l16.64,9.6c.2.12.18.33-.06.46l-2.39,1.38a.85.85,0,0,1-.79,0l-16.64-9.6c-.2-.12-.18-.33.06-.46l2.39-1.38A.85.85,0,0,1,176.05,269Z"/><path class="cls-5" d="M192.16,286.17l2.5,1.45c.2.12.18.32-.06.46l-2.39,1.38a.88.88,0,0,1-.79,0L188.91,288c-.2-.11-.18-.32.06-.46l2.39-1.37A.91.91,0,0,1,192.16,286.17Z"/><path class="cls-5" d="M188.62,284.13l2.5,1.44c.2.12.18.33-.06.46l-2.39,1.38a.89.89,0,0,1-.79,0L185.37,286c-.2-.12-.17-.32.06-.46l2.39-1.38A.9.9,0,0,1,188.62,284.13Z"/><path class="cls-5" d="M185.08,282.09l2.5,1.44c.2.12.18.33-.06.46l-2.38,1.38a.87.87,0,0,1-.8,0l-2.5-1.44c-.21-.12-.18-.33,0-.46l2.39-1.38A.87.87,0,0,1,185.08,282.09Z"/><path class="cls-5" d="M181.54,280l2.5,1.45c.21.12.18.32-.06.46l-2.38,1.38a.91.91,0,0,1-.8,0l-2.5-1.44c-.21-.12-.18-.33,0-.46l2.39-1.38A.91.91,0,0,1,181.54,280Z"/><path class="cls-5" d="M178,278l2.5,1.45c.21.11.18.32-.05.46l-2.39,1.37a.88.88,0,0,1-.8,0l-2.5-1.45c-.21-.12-.18-.32.06-.46L177.2,278A.91.91,0,0,1,178,278Z"/><path class="cls-5" d="M174.46,276l2.5,1.44c.21.12.18.33-.05.46l-2.39,1.38a.87.87,0,0,1-.8,0l-2.5-1.44c-.2-.12-.18-.32.06-.46l2.39-1.38A.85.85,0,0,1,174.46,276Z"/><path class="cls-5" d="M170.92,273.91l2.51,1.45c.2.12.17.32-.06.46L171,277.2a.9.9,0,0,1-.8,0l-2.5-1.44c-.2-.12-.18-.33.06-.46l2.39-1.38A.89.89,0,0,1,170.92,273.91Z"/><path class="cls-5" d="M167.38,271.87l2.51,1.45c.2.11.18.32-.06.46l-2.39,1.37a.86.86,0,0,1-.79,0l-2.51-1.45c-.2-.11-.18-.32.06-.46l2.39-1.38A.88.88,0,0,1,167.38,271.87Z"/><path class="cls-5" d="M163.85,269.83l2.5,1.44c.2.12.18.33-.06.46l-2.39,1.38a.85.85,0,0,1-.79,0l-2.51-1.44c-.2-.12-.17-.32.06-.46l2.39-1.38A.9.9,0,0,1,163.85,269.83Z"/><path class="cls-5" d="M160.31,267.79l2.5,1.44c.2.12.18.32-.06.46l-2.39,1.38a.88.88,0,0,1-.79,0l-2.5-1.44c-.21-.12-.18-.33.05-.46l2.39-1.38A.87.87,0,0,1,160.31,267.79Z"/><path class="cls-5" d="M156.77,265.74l2.5,1.45c.21.12.18.32-.06.46L156.83,269a.91.91,0,0,1-.8,0l-2.5-1.45c-.21-.11-.18-.32.05-.46l2.39-1.37A.88.88,0,0,1,156.77,265.74Z"/><path class="cls-5" d="M153.23,263.7l2.5,1.44c.21.12.18.33-.06.46L153.29,267a.91.91,0,0,1-.8,0l-2.5-1.45c-.21-.12-.18-.32.06-.46l2.38-1.38A.91.91,0,0,1,153.23,263.7Z"/><path class="cls-5" d="M195.69,288.22l5.18,3c.2.12.18.33-.06.46L198.42,293a.89.89,0,0,1-.79,0l-5.18-3c-.2-.12-.18-.33.06-.46l2.39-1.38A.85.85,0,0,1,195.69,288.22Z"/><path class="cls-5" d="M197.35,285.2l2.5,1.45c.2.12.18.32-.06.46l-2.39,1.38a.88.88,0,0,1-.79,0l-2.51-1.44c-.2-.12-.17-.33.06-.46l2.39-1.38A.91.91,0,0,1,197.35,285.2Z"/><path class="cls-5" d="M193.81,283.16l2.5,1.45c.2.11.18.32-.06.46l-2.39,1.38a.88.88,0,0,1-.79,0l-2.5-1.45c-.21-.11-.18-.32.05-.46L193,283.2A.88.88,0,0,1,193.81,283.16Z"/><path class="cls-5" d="M190.27,281.12l2.5,1.44c.21.12.18.33-.06.46l-2.38,1.38a.91.91,0,0,1-.8,0L187,283c-.21-.12-.18-.32.05-.46l2.39-1.38A.91.91,0,0,1,190.27,281.12Z"/><path class="cls-5" d="M186.73,279.08l2.5,1.44c.21.12.18.33,0,.46l-2.39,1.38a.87.87,0,0,1-.8,0l-2.5-1.44c-.2-.12-.18-.33.06-.46l2.38-1.38A.87.87,0,0,1,186.73,279.08Z"/><path class="cls-5" d="M183.19,277l2.51,1.45c.2.12.17.32-.06.46l-2.39,1.38a.9.9,0,0,1-.8,0l-2.5-1.44c-.2-.12-.18-.33.06-.46l2.39-1.38A.89.89,0,0,1,183.19,277Z"/><path class="cls-5" d="M179.66,275l2.5,1.45c.2.11.18.32-.06.46l-2.39,1.37a.86.86,0,0,1-.79,0l-2.51-1.45c-.2-.12-.18-.32.06-.46l2.39-1.38A.9.9,0,0,1,179.66,275Z"/><path class="cls-5" d="M176.12,273l2.5,1.44c.2.12.18.33-.06.46l-2.39,1.38a.85.85,0,0,1-.79,0l-2.5-1.44c-.21-.12-.18-.32.05-.46l2.39-1.38A.9.9,0,0,1,176.12,273Z"/><path class="cls-5" d="M172.58,270.91l2.5,1.44c.21.12.18.32-.06.46l-2.38,1.38a.87.87,0,0,1-.8,0l-2.5-1.44c-.21-.12-.18-.33,0-.46l2.39-1.38A.87.87,0,0,1,172.58,270.91Z"/><path class="cls-5" d="M169,268.86l2.5,1.45c.21.12.18.32,0,.46l-2.39,1.38a.9.9,0,0,1-.8,0l-2.5-1.45c-.21-.11-.18-.32.06-.46l2.38-1.37A.91.91,0,0,1,169,268.86Z"/><path class="cls-5" d="M165.5,266.82l2.51,1.45c.2.11.17.32-.06.45l-2.39,1.38a.91.91,0,0,1-.8,0l-2.5-1.45c-.2-.12-.18-.32.06-.46l2.39-1.38A.88.88,0,0,1,165.5,266.82Z"/><path class="cls-5" d="M162,264.78l2.51,1.44c.2.12.18.33-.06.46L162,268.06a.85.85,0,0,1-.79,0l-2.51-1.44c-.2-.12-.18-.32.06-.46l2.39-1.38A.85.85,0,0,1,162,264.78Z"/><path class="cls-5" d="M154.05,260.21l6.88,4c.2.12.18.32-.06.46L158.48,266a.88.88,0,0,1-.79,0l-6.88-4c-.21-.12-.18-.33.05-.46l2.39-1.38A.87.87,0,0,1,154.05,260.21Z"/><path class="cls-5" d="M200.88,287.25l3.42,2c.2.12.17.32-.06.46l-2.39,1.38a.9.9,0,0,1-.8,0l-3.41-2c-.2-.12-.18-.32.06-.46l2.39-1.38A.85.85,0,0,1,200.88,287.25Z"/><path class="cls-5" d="M140.19,268.21l50.25,29c.2.12.18.32-.06.46l-1.19.69a.9.9,0,0,1-.8,0l-50.25-29c-.2-.12-.17-.33.06-.46l1.19-.69A.87.87,0,0,1,140.19,268.21Z"/><polygon id="_Контур_7" data-name="&lt;Контур&gt;" class="cls-12" points="198.99 269.5 198.66 269.69 189.98 274.7 174.54 265.79 174.22 265.61 183.23 260.41 198.99 269.5"/><polygon id="_Контур_8" data-name="&lt;Контур&gt;" class="cls-13" points="198.66 269.69 189.98 274.7 174.54 265.79 183.23 260.78 198.66 269.69"/><path id="_Контур_9" data-name="&lt;Контур&gt;" class="cls-13" d="M223.75,281.2V282a3.18,3.18,0,0,1-1.58,2.75l-30.61,17.67a3.14,3.14,0,0,1-1.58.42,3.2,3.2,0,0,1-1.58-.42l-55.38-32a3.18,3.18,0,0,1-1.58-2.75v-.77L190,300.7Z"/><path class="cls-6" d="M192.47,224.81,182.2,219s-9.43,9-9.43,9.36h0A130,130,0,0,0,162.28,242c-1.29,1.83-2.68,2.93-5.53,6.17s-5.4,7.58-6.17,10.95-.51,4.64.11,5c.78.47,1.54-.11,2.07-1.62a22.78,22.78,0,0,1,3.24-7s-1.32,3.28-1.94,5.29a20.68,20.68,0,0,0-.93,5.44c0,1.75,2.15,3,2.72,1.5s.61-2.8,1.57-5.77a22.1,22.1,0,0,1,2.05-4.58,38.74,38.74,0,0,0-1.09,6.06c-.21,2.81.3,3.94.67,4.66s1.91,1,2.37-.91c.41-1.75.18-4.05,1.49-7.33,1-2.39,2-4,2.18-3.57s-.43,1.79-.22,3.9,1.65,3.75,2.83,3.42.94-.29,1.08-2.43.94-4.07.88-7.08a13,13,0,0,1,.91-6.15c.89-2.28,5.22-7.36,10.1-12.2Z"/><path id="_Контур_10" data-name="&lt;Контур&gt;" class="cls-7" d="M189.09,301.17a3.75,3.75,0,0,1-3.23-.25l-55.14-31.83a3.75,3.75,0,0,1-1.82-2.62l-6-36a4.18,4.18,0,0,1,0-.61,3.76,3.76,0,0,1,1.11-2.67l57.3,33.08a2.81,2.81,0,0,1,1.34,2Z"/><path id="_Контур_11" data-name="&lt;Контур&gt;" class="cls-13" d="M190,300.7l-.38.22a4,4,0,0,1-.51.25l-6.53-38.95a2.81,2.81,0,0,0-1.34-2l-57.3-33.08a3.79,3.79,0,0,1,.77-.58l57.41,33.14a2.78,2.78,0,0,1,1.34,1.94Z"/></g></g><path class="cls-11" d="M199.17,204s-4.32-.22-6.1-2.74c.33-4.3,5.84-20.65,16.92-21.87a20.61,20.61,0,0,0-6.93,8.36C201.05,192.64,199.17,204,199.17,204Z"/></g><ellipse class="cls-14" cx="73.5" cy="249.04" rx="6.88" ry="3.97"/><ellipse class="cls-15" cx="74.48" cy="248.3" rx="6.88" ry="3.97"/><polygon class="cls-15" points="65.27 234.72 67.68 248.58 81.34 248.58 83.69 234.82 65.27 234.72"/><ellipse class="cls-16" cx="74.48" cy="234.55" rx="9.22" ry="5.32"/><path class="cls-17" d="M74.48,238.7a12.12,12.12,0,0,1-5.93-1.4c-1.34-.78-2.11-1.78-2.11-2.75s.77-2,2.11-2.75a13.26,13.26,0,0,1,11.86,0c1.35.78,2.12,1.78,2.12,2.75s-.77,2-2.12,2.75A12.09,12.09,0,0,1,74.48,238.7Z"/><path class="cls-18" d="M78.45,230.36a11.66,11.66,0,0,0-3.91-9.59h0l0,0v0a11.66,11.66,0,0,0-3.91,9.59l-5.27-.5c2.23,8.38,9.22,7.66,9.22,7.66v0c.52,0,7,.38,9.17-7.66Z"/><path class="cls-19" d="M74.54,237.54s-.47-6.53-9.24-10.92C65.3,226.62,63.23,237.46,74.54,237.54Z"/><path class="cls-19" d="M74.48,237.54S75,231,83.72,226.62C83.72,226.62,85.79,237.46,74.48,237.54Z"/><ellipse class="cls-14" cx="256.83" cy="339.78" rx="8.98" ry="5.18"/><path class="cls-15" d="M266.69,339V325.21l-17.92.45,0,12.75c-.34,1.54.51,3.14,2.55,4.32a14.07,14.07,0,0,0,12.7,0C265.83,341.71,266.7,340.38,266.69,339Z"/><ellipse class="cls-16" cx="257.71" cy="325.21" rx="8.98" ry="5.18"/><path class="cls-17" d="M265.27,325.21c0,.85-.7,1.73-1.92,2.44a11.45,11.45,0,0,1-5.06,1.31l-.58,0a11.72,11.72,0,0,1-5.64-1.33c-1.22-.71-1.92-1.59-1.92-2.44s.7-1.73,1.92-2.43a11.61,11.61,0,0,1,5.64-1.33h.58a11.32,11.32,0,0,1,5.06,1.32C264.57,323.48,265.27,324.37,265.27,325.21Z"/><path class="cls-20" d="M265.27,325.21c0,.85-.7,1.73-1.92,2.44a10.45,10.45,0,0,1-10.13,0c-1.22-.71-1.92-1.59-1.92-2.44s.7-1.73,1.92-2.43a10.38,10.38,0,0,1,10.13,0C264.57,323.48,265.27,324.37,265.27,325.21Z"/><path class="cls-21" d="M265.38,331.62l-1.91-1.11-.92.54.92.54v.35l1.79,1-.05.33a15.77,15.77,0,0,1,1.18,1.93l.07-.06v4.45c0,1.17-.69.77-1,.6l-2-1.15-.92.53.92.54v.35l2,1.16a3.19,3.19,0,0,0,.65.29l-.12.56,1-.59h0a1.77,1.77,0,0,0,.61-1.57v-4.65A5.36,5.36,0,0,0,265.38,331.62Z"/><path class="cls-22" d="M264.55,342.19l-2-1.16V339.6l2,1.16c.3.17,1,.57,1-.6v-4.65a2.73,2.73,0,0,0-1.16-2l-1.82-1v-1.43l1.9,1.1a5.4,5.4,0,0,1,2.31,4.07v4.65C266.76,342.13,266.18,343.13,264.55,342.19Z"/><path class="cls-23" d="M63.08,103.44c-1.57-4.12-3.27-5.69-6.74-7.92s-12.16-7.4-19.69-11.75-16.26-9.28-19.71-11C14.55,71.54,13,71,11.75,71.54v0l-.22.12-.13.07L4.17,75.61l4.19,3.13A80,80,0,0,0,7.75,90v0h0c0,9.71.83,15.76,2.45,19.88s3.28,5.7,6.73,8,12.17,7.4,19.72,11.75c5.58,3.23,11.81,6.75,16.06,9.07l.88,7.39,8.17-4.34h0a3.84,3.84,0,0,0,1.33-1.29c1.63-2.24,2.45-7.34,2.45-17v0h0C65.53,113.61,64.71,107.6,63.08,103.44Z"/><path class="cls-24" d="M55.32,107.61c-1.56-4.13-3.26-5.7-6.73-7.93S36.43,92.28,28.9,87.93s-16.26-9.27-19.71-11S4,74.77,2.44,77.08,0,84.42,0,94.17H0c0,9.71.83,15.76,2.44,19.88s3.29,5.7,6.74,8,12.17,7.4,19.72,11.76,16.23,9.23,19.7,11,5.16,2.13,6.73-.19,2.45-7.34,2.45-17.05v0h0C57.78,117.78,57,111.76,55.32,107.61Z"/><polygon class="cls-25" points="21.67 119.2 21.67 94.18 39.72 117.11 21.67 119.2"/><path class="cls-26" d="M204.26,52.65c0-18-12.62-39.82-28.18-48.81C168.43-.57,161.5-1,156.42,1.73h0l-.17.1-.19.11-5.72,3.33,1.42.65c-2.45,3.41-3.86,8.21-3.86,14.2,0,18,12.62,39.82,28.18,48.8,4.72,2.73,9.17,4,13.08,3.84L189,74.93l7-4,.07,0,.1-.06h0C201.16,67.83,204.26,61.55,204.26,52.65Z"/><ellipse class="cls-27" cx="169.7" cy="40.08" rx="23.01" ry="39.85" transform="translate(2.7 90.22) rotate(-30)"/><path class="cls-28" d="M185.8,39.15a11.52,11.52,0,0,1-3.87-1,3.5,3.5,0,0,0,3-2.59,9.74,9.74,0,0,1-4.27-.59,13.93,13.93,0,0,0-4.92-5.29C172,27.52,169,29.26,169,33.56a10,10,0,0,0,.18,1.87c-5.6-3.55-10.56-9.52-13.88-16.14a5.77,5.77,0,0,0-.91,3.38,14.54,14.54,0,0,0,3,8.21,12.61,12.61,0,0,1-3.05-2.74v.1A15.1,15.1,0,0,0,159.69,39a6.75,6.75,0,0,1-1.77-.75,9.54,9.54,0,0,1-1.27-.87,15.23,15.23,0,0,0,6.29,9c-2.3.75-5.21.32-8.36-1.51-.54-.31-1.08-.66-1.61-1a35.75,35.75,0,0,0,10.33,9.45c12.38,7.16,19.16-.78,19.16-11.06,0-.34,0-.68,0-1a6.47,6.47,0,0,0,3.36-2.08Z"/><path class="cls-29" d="M369.26,86.43,328.7,63a5.49,5.49,0,0,0-4.87-.72h0l-.06,0a3.64,3.64,0,0,0-.66.38l-6.48,3.71,4.59,6.37v41.37a16.55,16.55,0,0,0,7.48,13l20,11.55,0-22.89-5.16-3a2.69,2.69,0,0,1-1.21-2.11l0-7.39c0-.78.55-1.1,1.22-.71l5.14,3V98.44c0-8.28,4.38-10.26,10.78-6.57l5.25,3A2.69,2.69,0,0,1,365.94,97v6.22c0,.78-.54,1.09-1.21.7l-3.22-1.85c-3.48-2-4.15-.49-4.15,2.31v6.17L365,115a2.64,2.64,0,0,1,1.21,2.26l-.76,7c-.07.67-.59.9-1.21.54l-6.85-4,0,22.88,8.34,4.82,1.47,6.8,7.33-4.2.08-.05.06,0h0c1.3-.81,2.11-2.45,2.11-4.79V99.39A16.55,16.55,0,0,0,369.26,86.43Z"/><path class="cls-30" d="M336.93,139.86l23.87,13.79,3.93-46.59-7.11-11.67L334.68,81.82l-4.87,9.73s.38,21.51,1,26S336.93,139.86,336.93,139.86Z"/><path class="cls-31" d="M362.34,90.43,321.78,67c-4.13-2.39-7.48-.45-7.48,4.32v46.82a16.55,16.55,0,0,0,7.48,13l20,11.55,0-22.89-5.15-3a2.7,2.7,0,0,1-1.22-2.11l0-7.39c0-.78.55-1.1,1.22-.71l5.15,3v-7.13c0-8.28,4.37-10.26,10.77-6.57l5.25,3A2.7,2.7,0,0,1,359,101v6.22c0,.78-.55,1.09-1.22.7l-3.22-1.85c-3.48-2-4.15-.49-4.15,2.31v6.17l7.64,4.42a2.64,2.64,0,0,1,1.21,2.26l-.76,7c-.07.66-.59.9-1.21.54l-6.85-3.95,0,22.88,11.9,6.87c4.13,2.39,7.48.45,7.48-4.32V103.39A16.55,16.55,0,0,0,362.34,90.43Z"/><path class="cls-32" d="M437.56,293c0-20.72-14.55-45.91-32.49-56.28-8.74-5-16.66-5.63-22.5-2.52v0l-.18.11a11.5,11.5,0,0,0-1,.6l-6.76,4,1.88.89c-2.52,3.88-3.95,9.16-3.95,15.65,0,20.72,14.55,45.92,32.5,56.28a29.93,29.93,0,0,0,13.81,4.42l.35,2.73,8.25-4.56h0C433.69,311.06,437.56,303.66,437.56,293Z"/><ellipse class="cls-30" cx="397.38" cy="278.13" rx="22.38" ry="38.76" transform="translate(-85.83 235.97) rotate(-30)"/><path class="cls-33" d="M397.65,286c3.58,2.07,6.49.39,6.49-3.74a12.63,12.63,0,0,0-1.22-5.08,14,14,0,0,0-5.26-6.16c-2.17-1.25-4.08-1.12-5.27.09a5.16,5.16,0,0,0-1.22,3.66A14.33,14.33,0,0,0,397.65,286Z"/><polygon class="cls-33" points="411.82 277.54 411.82 271.26 411.82 270.32 411.01 269.86 405.57 266.74 405.59 273.97 411.82 277.54"/><path class="cls-33" d="M397.65,241.1c-17.87-10.32-32.41-1.92-32.41,18.71s14.54,45.82,32.41,56.14,32.41,1.92,32.41-18.71S415.53,251.42,397.65,241.1Zm18.44,43.7v17.42c0,4.54-3.2,6.39-7.13,4.12l-22.61-13.06a15.77,15.77,0,0,1-7.13-12.34V254.83c0-4.54,3.2-6.39,7.13-4.12L409,263.77a15.77,15.77,0,0,1,7.13,12.34Z"/><path class="cls-33" d="M407.74,284.34c0,6.42-4.53,9-10.09,5.83s-10.08-11.05-10.08-17.47a9.85,9.85,0,0,1,.74-3.94l-5.5-3.17V283a7.81,7.81,0,0,0,3.53,6.12L409,302.19c2,1.12,3.53.21,3.53-2V282.72l-5.5-3.17A17,17,0,0,1,407.74,284.34Z"/></g></g></svg>