<svg width="800" height="800" viewBox="0 0 600 600" xmlns="http://www.w3.org/2000/svg"><g transform="translate(300, 300)"><path d="M153.1,-194.1C200,-176.7,240.8,-134.1,258,-83.3C275.2,-32.5,268.8,26.4,242.5,69.9C216.1,113.5,169.8,141.7,126,171.3C82.3,200.9,41.1,232,-2.0999999999999996,234.8C-45.3,237.6,-90.5,212.3,-124.4,179.4C-158.4,146.6,-180.9,106.4,-196.2,62.9C-211.5,19.5,-219.4,-27.2,-207.1,-68C-194.8,-108.8,-162.4,-143.8,-124.5,-164.2C-86.6,-184.5,-43.3,-190.3,4.9,-197C53.1,-203.7,106.2,-211.5,153.1,-194.1Z" fill="rgba(232, 236, 244, 1)" stroke="none" stroke-width="0"></path></g></svg>